<svg width="45" height="45" viewBox="0 0 45 45" fill="none" xmlns="http://www.w3.org/2000/svg">
<path d="M40.7812 5.625H4.21875C1.88877 5.625 0 7.51377 0 9.84375V35.1562C0 37.4862 1.88877 39.375 4.21875 39.375H40.7812C43.1112 39.375 45 37.4862 45 35.1562V9.84375C45 7.51377 43.1112 5.625 40.7812 5.625ZM40.7812 9.84375V13.4301C38.8106 15.0349 35.6688 17.5303 28.9523 22.7896C27.4721 23.9539 24.5401 26.751 22.5 26.7184C20.4602 26.7514 17.5272 23.9534 16.0477 22.7896C9.33223 17.5311 6.1897 15.0352 4.21875 13.4301V9.84375H40.7812ZM4.21875 35.1562V18.8436C6.23268 20.4477 9.08868 22.6986 13.4418 26.1074C15.3628 27.6195 18.727 30.9577 22.5 30.9374C26.2544 30.9577 29.576 27.668 31.5574 26.1081C35.9104 22.6994 38.7672 20.4478 40.7812 18.8437V35.1562H4.21875Z" fill="black"/>
</svg>
