<svg xmlns="http://www.w3.org/2000/svg"
     width="75px" height="75px"
     viewBox="0 0 500 500">
  <path id="Seleção"
        fill="#FFCC00" stroke="black" stroke-width="1"
        d="M 97.00,16.11
           C 97.00,16.11 133.00,16.11 133.00,16.11
             133.00,16.11 198.00,16.11 198.00,16.11
             198.00,16.11 395.00,16.11 395.00,16.11
             435.57,16.06 473.01,37.75 487.31,77.00
             494.08,95.60 493.22,106.77 493.00,126.00
             493.00,126.00 491.09,150.00 491.09,150.00
             491.09,150.00 487.09,204.00 487.09,204.00
             487.09,204.00 479.17,311.00 479.17,311.00
             479.17,311.00 477.91,332.00 477.91,332.00
             477.91,332.00 475.09,366.00 475.09,366.00
             473.87,383.78 473.44,395.98 466.55,413.00
             451.02,451.34 410.18,482.93 368.00,483.00
             368.00,483.00 130.00,483.00 130.00,483.00
             123.66,482.97 118.14,481.76 112.00,480.35
             77.37,472.41 47.60,446.76 34.01,414.00
             25.92,394.49 26.74,383.97 24.83,364.00
             24.83,364.00 19.91,297.00 19.91,297.00
             19.91,297.00 18.09,277.00 18.09,277.00
             18.09,277.00 9.91,162.00 9.91,162.00
             9.91,162.00 7.96,142.00 7.96,142.00
             7.96,142.00 7.96,134.00 7.96,134.00
             6.05,115.26 4.65,104.85 9.48,86.00
             16.80,57.43 38.69,33.66 66.00,22.92
             78.46,18.03 84.55,18.19 97.00,16.11 Z
           M 279.00,96.28
           C 265.43,98.28 254.93,101.60 245.17,112.04
             218.01,141.10 232.73,190.46 272.00,197.91
             277.49,198.95 283.43,199.44 289.00,198.71
             296.40,197.75 303.71,195.35 310.00,191.30
             346.87,167.55 339.95,109.84 297.00,98.16
             291.16,96.57 285.03,95.73 279.00,96.28 Z
           M 290.00,261.00
           C 290.00,261.00 337.00,261.00 337.00,261.00
             345.40,261.00 355.58,261.62 363.00,257.01
             378.25,247.55 378.90,226.32 365.00,215.39
             359.25,210.88 350.12,210.03 343.00,210.00
             343.00,210.00 268.00,210.00 268.00,210.00
             265.84,210.00 263.03,210.11 261.00,209.42
             257.43,208.19 244.98,197.43 241.00,194.35
             234.38,189.22 221.93,178.17 215.00,175.03
             204.02,170.07 188.50,173.34 178.00,178.32
             160.13,186.79 147.00,204.06 137.70,221.00
             120.05,253.13 111.03,288.27 104.00,324.00
             99.03,349.24 94.91,372.26 114.29,392.91
             120.59,399.62 132.79,405.84 142.00,406.94
             142.00,406.94 161.00,406.94 161.00,406.94
             161.00,406.94 188.00,406.94 188.00,406.94
             210.54,406.96 220.21,394.79 235.00,380.00
             235.00,380.00 283.00,332.00 283.00,332.00
             288.42,339.57 295.48,344.56 302.00,351.00
             302.00,351.00 340.00,389.00 340.00,389.00
             349.91,398.91 354.97,406.93 370.00,407.00
             372.86,407.01 376.23,407.11 379.00,406.47
             392.79,403.29 400.30,390.43 399.99,377.00
             399.62,361.24 386.25,351.25 376.00,341.00
             376.00,341.00 326.00,291.00 326.00,291.00
             313.50,278.50 306.24,268.66 290.00,261.00 Z
           M 214.00,305.00
           C 214.00,305.00 222.42,275.00 222.42,275.00
             222.42,275.00 226.85,262.60 226.85,262.60
             226.85,262.60 234.00,261.00 234.00,261.00
             234.00,261.00 261.00,261.00 261.00,261.00
             261.00,261.00 276.00,262.00 276.00,262.00
             267.31,264.06 261.02,270.36 254.00,275.63
             254.00,275.63 214.00,305.00 214.00,305.00 Z" />
</svg>
