<svg width="40" height="45" viewBox="0 0 40 45" fill="none" xmlns="http://www.w3.org/2000/svg">
<g clip-path="url(#clip0)">
<path d="M20.0089 12.3926C14.3303 12.3926 9.74998 16.9014 9.74998 22.4912C9.74998 28.0811 14.3303 32.5899 20.0089 32.5899C25.6875 32.5899 30.2678 28.0811 30.2678 22.4912C30.2678 16.9014 25.6875 12.3926 20.0089 12.3926ZM20.0089 29.0566C16.3393 29.0566 13.3393 26.1123 13.3393 22.4912C13.3393 18.8701 16.3303 15.9258 20.0089 15.9258C23.6875 15.9258 26.6785 18.8701 26.6785 22.4912C26.6785 26.1123 23.6785 29.0566 20.0089 29.0566ZM33.0803 11.9795C33.0803 13.2891 32.0089 14.335 30.6875 14.335C29.3571 14.335 28.2946 13.2803 28.2946 11.9795C28.2946 10.6787 29.366 9.62403 30.6875 9.62403C32.0089 9.62403 33.0803 10.6787 33.0803 11.9795ZM39.875 14.3701C39.7232 11.2148 38.991 8.41992 36.6428 6.11719C34.3035 3.81445 31.4643 3.09375 28.2589 2.93555C24.9553 2.75098 15.0535 2.75098 11.75 2.93555C8.55355 3.08496 5.71427 3.80566 3.36605 6.1084C1.01784 8.41113 0.294625 11.2061 0.133911 14.3613C-0.0535888 17.6133 -0.0535888 27.3604 0.133911 30.6123C0.285697 33.7676 1.01784 36.5625 3.36605 38.8652C5.71427 41.168 8.54462 41.8887 11.75 42.0469C15.0535 42.2315 24.9553 42.2315 28.2589 42.0469C31.4643 41.8975 34.3035 41.1768 36.6428 38.8652C38.9821 36.5625 39.7143 33.7676 39.875 30.6123C40.0625 27.3604 40.0625 17.6221 39.875 14.3701ZM35.6071 34.1016C34.9107 35.8242 33.5625 37.1514 31.8035 37.8457C29.1696 38.874 22.9196 38.6367 20.0089 38.6367C17.0982 38.6367 10.8393 38.8652 8.21426 37.8457C6.46426 37.1602 5.11605 35.833 4.4107 34.1016C3.36605 31.5088 3.60712 25.3565 3.60712 22.4912C3.60712 19.626 3.37498 13.4648 4.4107 10.8809C5.10712 9.15821 6.45534 7.83106 8.21426 7.13672C10.8482 6.1084 17.0982 6.3457 20.0089 6.3457C22.9196 6.3457 29.1785 6.11719 31.8035 7.13672C33.5535 7.82227 34.9018 9.14942 35.6071 10.8809C36.6518 13.4736 36.4107 19.626 36.4107 22.4912C36.4107 25.3565 36.6518 31.5176 35.6071 34.1016Z" fill="black"/>
</g>
<defs>
<clipPath id="clip0">
<rect width="40" height="45" fill="white"/>
</clipPath>
</defs>
</svg>
