<svg width="40" height="45" viewBox="0 0 40 45" fill="none" xmlns="http://www.w3.org/2000/svg">
<path d="M34.0089 8.53418C30.2679 4.84277 25.2857 2.8125 19.9911 2.8125C9.0625 2.8125 0.169643 11.5664 0.169643 22.3242C0.169643 25.7607 1.08036 29.1182 2.8125 32.0801L0 42.1875L10.5089 39.4717C13.4018 41.0273 16.6607 41.8447 19.9821 41.8447H19.9911C30.9107 41.8447 40 33.0908 40 22.333C40 17.1211 37.75 12.2256 34.0089 8.53418ZM19.9911 38.5576C17.0268 38.5576 14.125 37.7754 11.5982 36.2988L11 35.9473L4.76786 37.5557L6.42857 31.5703L6.03571 30.9551C4.38393 28.3711 3.51786 25.3916 3.51786 22.3242C3.51786 13.3857 10.9107 6.1084 20 6.1084C24.4018 6.1084 28.5357 7.7959 31.6429 10.8633C34.75 13.9307 36.6607 18 36.6518 22.333C36.6518 31.2803 29.0714 38.5576 19.9911 38.5576ZM29.0268 26.4111C28.5357 26.165 26.0982 24.9873 25.6429 24.8291C25.1875 24.6621 24.8571 24.583 24.5268 25.0752C24.1964 25.5674 23.25 26.6572 22.9554 26.9912C22.6696 27.3164 22.375 27.3604 21.8839 27.1143C18.9732 25.6816 17.0625 24.5566 15.1429 21.3135C14.6339 20.4521 15.6518 20.5137 16.5982 18.6504C16.7589 18.3252 16.6786 18.0439 16.5536 17.7979C16.4286 17.5518 15.4375 15.1523 15.0268 14.1768C14.625 13.2275 14.2143 13.3594 13.9107 13.3418C13.625 13.3242 13.2946 13.3242 12.9643 13.3242C12.6339 13.3242 12.0982 13.4473 11.6429 13.9307C11.1875 14.4229 9.91071 15.6006 9.91071 18C9.91071 20.3994 11.6875 22.7197 11.9286 23.0449C12.1786 23.3701 15.4196 28.292 20.3929 30.4102C23.5357 31.7461 24.7679 31.8604 26.3393 31.6318C27.2946 31.4912 29.2679 30.4541 29.6786 29.3115C30.0893 28.1689 30.0893 27.1934 29.9643 26.9912C29.8482 26.7715 29.5179 26.6484 29.0268 26.4111Z" fill="black"/>
</svg>
