<svg width="144" height="106" viewBox="0 0 144 106" fill="none" xmlns="http://www.w3.org/2000/svg">
<path d="M140.139 16.9289C138.504 10.4621 133.684 5.3691 127.565 3.6407C116.474 0.5 72 0.5 72 0.5C72 0.5 27.526 0.5 16.4346 3.6407C10.3156 5.36938 5.49635 10.4621 3.86067 16.9289C0.888794 28.6504 0.888794 53.1061 0.888794 53.1061C0.888794 53.1061 0.888794 77.5618 3.86067 89.2832C5.49635 95.75 10.3156 100.631 16.4346 102.359C27.526 105.5 72 105.5 72 105.5C72 105.5 116.474 105.5 127.565 102.359C133.684 100.631 138.504 95.75 140.139 89.2832C143.111 77.5618 143.111 53.1061 143.111 53.1061C143.111 53.1061 143.111 28.6504 140.139 16.9289ZM57.4545 75.31V30.9021L94.6261 53.1066L57.4545 75.31Z" fill="#FF0000"/>
</svg>
